<?xml version="1.0" encoding="utf-8"?>
<!-- Generator: Adobe Illustrator 16.0.0, SVG Export Plug-In . SVG Version: 6.00 Build 0)  -->
<!DOCTYPE svg PUBLIC "-//W3C//DTD SVG 1.1//EN" "http://www.w3.org/Graphics/SVG/1.1/DTD/svg11.dtd">
<svg version="1.1" id="Layer_1" xmlns="http://www.w3.org/2000/svg" xmlns:xlink="http://www.w3.org/1999/xlink" x="0px" y="0px"
	 width="100px" height="100px" viewBox="0 0 100 100" enable-background="new 0 0 100 100" xml:space="preserve">
<circle fill="#3E92E0" cx="50" cy="50" r="50"/>
<path fill="#FFFFFF" d="M65.5,38.374V34.5c0-8.548-6.953-15.501-15.5-15.501S34.5,25.952,34.5,34.5v3.874H22.874v32.939
	c0,5.35,4.338,9.688,9.688,9.688h34.875c5.351,0,9.688-4.338,9.688-9.688V38.374H65.5z M42.249,34.5
	c0-4.273,3.478-7.751,7.751-7.751s7.751,3.478,7.751,7.751v3.874H42.249V34.5z M61.626,49.031c-1.605,0-2.906-1.301-2.906-2.906
	s1.301-2.906,2.906-2.906s2.905,1.301,2.905,2.906S63.231,49.031,61.626,49.031z M38.374,49.031c-1.605,0-2.905-1.301-2.905-2.906
	s1.3-2.906,2.905-2.906s2.906,1.301,2.906,2.906S39.979,49.031,38.374,49.031z"/>
</svg>
