<?xml version="1.0" encoding="utf-8"?>
<!-- Generator: Adobe Illustrator 16.0.0, SVG Export Plug-In . SVG Version: 6.00 Build 0)  -->
<!DOCTYPE svg PUBLIC "-//W3C//DTD SVG 1.1//EN" "http://www.w3.org/Graphics/SVG/1.1/DTD/svg11.dtd">
<svg version="1.1" id="Layer_1" xmlns="http://www.w3.org/2000/svg" xmlns:xlink="http://www.w3.org/1999/xlink" x="0px" y="0px"
	 width="100px" height="100px" viewBox="0 0 100 100" enable-background="new 0 0 100 100" xml:space="preserve">
<circle fill="#B671D6" cx="50" cy="50" r="50"/>
<path fill="#FFFFFF" d="M85.973,37.769L52.784,27.572c-1.809-0.556-3.76-0.556-5.567,0l-33.19,10.196
	c-2.801,0.86-2.801,4.564,0,5.424l5.786,1.778c-1.27,1.569-2.05,3.484-2.127,5.58c-1.146,0.657-1.953,1.842-1.953,3.257
	c0,1.282,0.676,2.361,1.649,3.052l-3.037,13.669c-0.265,1.188,0.64,2.316,1.857,2.316h6.676c1.218,0,2.123-1.128,1.858-2.316
	l-3.038-13.669c0.973-0.69,1.649-1.77,1.649-3.052c0-1.377-0.77-2.528-1.863-3.197c0.09-1.787,1.004-3.367,2.462-4.369l23.269,7.149
	c1.078,0.331,3.146,0.744,5.567,0l33.189-10.196C88.774,42.333,88.774,38.63,85.973,37.769z M53.901,57.03
	c-3.394,1.043-6.287,0.467-7.804,0l-17.255-5.301l-1.687,13.5c0,4.206,10.228,7.615,22.844,7.615s22.845-3.409,22.845-7.615
	l-1.688-13.501L53.901,57.03z"/>
</svg>
