<?xml version="1.0" encoding="utf-8"?>
<!-- Generator: Adobe Illustrator 16.0.0, SVG Export Plug-In . SVG Version: 6.00 Build 0)  -->
<!DOCTYPE svg PUBLIC "-//W3C//DTD SVG 1.1//EN" "http://www.w3.org/Graphics/SVG/1.1/DTD/svg11.dtd">
<svg version="1.1" id="Layer_1" xmlns="http://www.w3.org/2000/svg" xmlns:xlink="http://www.w3.org/1999/xlink" x="0px" y="0px"
	 width="100px" height="100px" viewBox="0 0 100 100" enable-background="new 0 0 100 100" xml:space="preserve">
<circle fill="#FF9D34" cx="50" cy="50" r="50"/>
<path fill="#FFFFFF" d="M80.283,29.576H27.498c-1.509,0-2.729,1.223-2.729,2.731v0.91h-4.552c-1.508,0-2.729,1.222-2.729,2.729
	v30.942c0,3.519,2.852,6.371,6.37,6.371h53.693c3.017,0,5.461-2.445,5.461-5.461V32.307C83.012,30.798,81.79,29.576,80.283,29.576z
	 M23.857,67.799c-0.502,0-0.909-0.407-0.909-0.91V38.677h1.82v28.212C24.769,67.392,24.36,67.799,23.857,67.799z M50.705,65.979
	H33.413c-0.754,0-1.364-0.611-1.364-1.365v-0.91c0-0.753,0.61-1.365,1.364-1.365h17.292c0.754,0,1.364,0.612,1.364,1.365v0.91
	C52.069,65.367,51.459,65.979,50.705,65.979z M74.366,65.979H57.074c-0.754,0-1.363-0.611-1.363-1.365v-0.91
	c0-0.753,0.609-1.365,1.363-1.365h17.292c0.754,0,1.364,0.612,1.364,1.365v0.91C75.73,65.367,75.12,65.979,74.366,65.979z
	 M50.705,55.058H33.413c-0.754,0-1.364-0.61-1.364-1.364v-0.911c0-0.754,0.61-1.364,1.364-1.364h17.292
	c0.754,0,1.364,0.61,1.364,1.364v0.911C52.069,54.447,51.459,55.058,50.705,55.058z M74.366,55.058H57.074
	c-0.754,0-1.363-0.61-1.363-1.364v-0.911c0-0.754,0.609-1.364,1.363-1.364h17.292c0.754,0,1.364,0.61,1.364,1.364v0.911
	C75.73,54.447,75.12,55.058,74.366,55.058z M74.366,44.137H33.413c-0.754,0-1.364-0.611-1.364-1.365v-4.55
	c0-0.754,0.61-1.365,1.364-1.365h40.953c0.754,0,1.364,0.611,1.364,1.365v4.55C75.73,43.526,75.12,44.137,74.366,44.137z"/>
</svg>
