<?xml version="1.0" encoding="utf-8"?>
<!-- Generator: Adobe Illustrator 16.0.0, SVG Export Plug-In . SVG Version: 6.00 Build 0)  -->
<!DOCTYPE svg PUBLIC "-//W3C//DTD SVG 1.1//EN" "http://www.w3.org/Graphics/SVG/1.1/DTD/svg11.dtd">
<svg version="1.1" id="Layer_1" xmlns="http://www.w3.org/2000/svg" xmlns:xlink="http://www.w3.org/1999/xlink" x="0px" y="0px"
	 width="100px" height="100px" viewBox="0 0 100 100" enable-background="new 0 0 100 100" xml:space="preserve">
<circle fill="#35B5C2" cx="50" cy="50" r="50"/>
<path fill="#FFFFFF" d="M44.336,19.768c-12.169,2.375-21.976,12.157-24.375,24.29c-4.53,22.893,16.125,39.961,31.685,37.549
	c5.043-0.784,7.517-6.684,5.203-11.228c-2.829-5.558,1.211-12.046,7.455-12.046h9.759c4.382,0,7.932-3.624,7.944-7.994
	C81.946,31.044,64.39,15.862,44.336,19.768z M31.078,58.333c-2.167,0-3.918-1.751-3.918-3.918s1.751-3.918,3.918-3.918
	c2.167,0,3.917,1.751,3.917,3.918S33.244,58.333,31.078,58.333z M34.995,42.661c-2.167,0-3.917-1.75-3.917-3.917
	s1.751-3.918,3.917-3.918c2.167,0,3.918,1.751,3.918,3.918S37.162,42.661,34.995,42.661z M50.666,34.826
	c-2.167,0-3.918-1.751-3.918-3.918c0-2.166,1.751-3.917,3.918-3.917c2.166,0,3.917,1.751,3.917,3.917
	C54.583,33.075,52.832,34.826,50.666,34.826z M66.336,42.661c-2.165,0-3.918-1.75-3.918-3.917s1.753-3.918,3.918-3.918
	c2.168,0,3.918,1.751,3.918,3.918S68.504,42.661,66.336,42.661z"/>
</svg>
