<?xml version="1.0" encoding="utf-8"?>
<!-- Generator: Adobe Illustrator 16.0.0, SVG Export Plug-In . SVG Version: 6.00 Build 0)  -->
<!DOCTYPE svg PUBLIC "-//W3C//DTD SVG 1.1//EN" "http://www.w3.org/Graphics/SVG/1.1/DTD/svg11.dtd">
<svg version="1.1" id="Layer_1" xmlns="http://www.w3.org/2000/svg" xmlns:xlink="http://www.w3.org/1999/xlink" x="0px" y="0px"
	 width="100px" height="100px" viewBox="0 0 100 100" enable-background="new 0 0 100 100" xml:space="preserve">
<circle fill="#FF4D4D" cx="50" cy="50" r="50"/>
<path fill="#FFFFFF" d="M38.267,55.985c-4.502,0.289-8.587,2.005-10.905,8.111c-0.264,0.697-0.897,1.121-1.637,1.121
	c-1.247,0-5.102-3.104-6.2-3.854c0.002,9.239,4.258,17.361,14.364,17.361c8.512,0,14.362-4.91,14.362-13.486
	c0-0.348-0.073-0.682-0.109-1.024L38.267,55.985z M70.903,21.276c-1.7,0-3.295,0.753-4.512,1.846
	C43.456,43.61,41.069,44.091,41.069,50.123c0,1.538,0.364,3.003,0.979,4.342l7.161,5.967c0.809,0.201,1.644,0.34,2.513,0.34
	c6.968,0,11.008-5.102,23.693-28.775c0.828-1.61,1.56-3.35,1.56-5.16C76.976,23.592,74.058,21.276,70.903,21.276z"/>
</svg>
