<?xml version="1.0" encoding="utf-8"?>
<!-- Generator: Adobe Illustrator 16.0.0, SVG Export Plug-In . SVG Version: 6.00 Build 0)  -->
<!DOCTYPE svg PUBLIC "-//W3C//DTD SVG 1.1//EN" "http://www.w3.org/Graphics/SVG/1.1/DTD/svg11.dtd">
<svg version="1.1" id="Layer_1" xmlns="http://www.w3.org/2000/svg" xmlns:xlink="http://www.w3.org/1999/xlink" x="0px" y="0px"
	 width="100px" height="100px" viewBox="0 0 100 100" enable-background="new 0 0 100 100" xml:space="preserve">
<circle fill="#FFBA34" cx="50" cy="50" r="50"/>
<path fill="#FFFFFF" d="M78.875,30.085H67.5V25.71c0-1.455-1.171-2.625-2.625-2.625h-29.75c-1.454,0-2.625,1.17-2.625,2.625v4.375
	H21.125c-1.455,0-2.625,1.17-2.625,2.625v6.125c0,3.905,2.461,7.919,6.771,11.014c3.445,2.482,7.635,4.058,12.031,4.562
	c3.434,5.698,7.448,8.05,7.448,8.05v7.875H39.5c-3.86,0-7,2.264-7,6.125v1.313c0,0.722,0.591,1.313,1.313,1.313h32.375
	c0.722,0,1.313-0.591,1.313-1.313V76.46c0-3.861-3.14-6.125-7-6.125h-5.25V62.46c0,0,4.015-2.352,7.448-8.05
	c4.408-0.504,8.598-2.079,12.031-4.562c4.299-3.095,6.771-7.108,6.771-11.014V32.71C81.5,31.255,80.33,30.085,78.875,30.085z
	 M29.361,44.172c-2.669-1.924-3.861-4.068-3.861-5.337v-1.75h7.021c0.109,3.565,0.635,6.693,1.4,9.428
	C32.271,45.944,30.729,45.156,29.361,44.172z M74.5,38.835c0,1.761-1.936,3.948-3.861,5.337c-1.367,0.984-2.92,1.772-4.571,2.341
	c0.766-2.734,1.291-5.862,1.399-9.428H74.5V38.835z"/>
</svg>
