<?xml version="1.0" encoding="utf-8"?>
<!-- Generator: Adobe Illustrator 16.0.0, SVG Export Plug-In . SVG Version: 6.00 Build 0)  -->
<!DOCTYPE svg PUBLIC "-//W3C//DTD SVG 1.1//EN" "http://www.w3.org/Graphics/SVG/1.1/DTD/svg11.dtd">
<svg version="1.1" id="Layer_1" xmlns="http://www.w3.org/2000/svg" xmlns:xlink="http://www.w3.org/1999/xlink" x="0px" y="0px"
	 width="100px" height="100px" viewBox="0 0 100 100" enable-background="new 0 0 100 100" xml:space="preserve">
<circle fill="#919191" cx="50" cy="50" r="50"/>
<path fill="#FFFFFF" d="M72.478,73.75h-2.12V25.402c0-1.404-1.14-2.545-2.545-2.545H32.188c-1.405,0-2.545,1.141-2.545,2.545V73.75
	h-2.12c-0.702,0-1.272,0.57-1.272,1.273v2.119h47.5v-2.119C73.75,74.32,73.181,73.75,72.478,73.75z M39.821,30.916
	c0-0.703,0.569-1.271,1.272-1.271h4.241c0.703,0,1.272,0.568,1.272,1.271v4.241c0,0.703-0.569,1.273-1.272,1.273h-4.241
	c-0.703,0-1.272-0.57-1.272-1.273V30.916z M39.821,41.094c0-0.701,0.569-1.271,1.272-1.271h4.241c0.703,0,1.272,0.57,1.272,1.271
	v4.242c0,0.703-0.569,1.271-1.272,1.271h-4.241c-0.703,0-1.272-0.568-1.272-1.271V41.094z M45.335,56.787h-4.241
	c-0.703,0-1.272-0.57-1.272-1.273v-4.24c0-0.703,0.569-1.273,1.272-1.273h4.241c0.703,0,1.272,0.57,1.272,1.273v4.24
	C46.607,56.217,46.038,56.787,45.335,56.787z M53.393,73.75h-6.785v-8.906c0-0.703,0.569-1.271,1.272-1.271h4.24
	c0.703,0,1.272,0.568,1.272,1.271V73.75z M60.179,55.514c0,0.703-0.569,1.273-1.272,1.273h-4.241c-0.703,0-1.272-0.57-1.272-1.273
	v-4.24c0-0.703,0.569-1.273,1.272-1.273h4.241c0.703,0,1.272,0.57,1.272,1.273V55.514z M60.179,45.336
	c0,0.703-0.569,1.271-1.272,1.271h-4.241c-0.703,0-1.272-0.568-1.272-1.271v-4.242c0-0.701,0.569-1.271,1.272-1.271h4.241
	c0.703,0,1.272,0.57,1.272,1.271V45.336z M60.179,35.157c0,0.703-0.569,1.273-1.272,1.273h-4.241c-0.703,0-1.272-0.57-1.272-1.273
	v-4.241c0-0.703,0.569-1.271,1.272-1.271h4.241c0.703,0,1.272,0.568,1.272,1.271V35.157z"/>
</svg>
